Format : AVI
Format/Info : Audio Video Interleave
File size : 700 MiB
Duration : 2h 26mn
Overall bit rate : 668 Kbps
Writing application : VirtualDubMod 1.5.4.1 (build 2178/release)
Writing library : VirtualDubMod build 2178/release

Video
ID : 0
Format : MPEG-4 Visual
Format settings, BVOP : Yes
Format settings, QPel : No
Format settings, GMC : No warppoints
Format settings, Matrix : Default (H.263)
Muxing mode : Packed bitstream
Codec ID : DX50
Codec ID/Hint : DivX 5
Duration : 2h 26mn
Bit rate : 533 Kbps
Width : 720 pixels
Height : 304 pixels
Display aspect ratio : 2.35:1
Frame rate : 25.000 fps
Resolution : 24 bits
Colorimetry : 4:2:0
Scan type : Progressive
Bits/(Pixel*Frame) : 0.097
Stream size : 559 MiB (80%)
Writing library : DivX 6.8.4

Audio
ID : 1
Format : MPEG Audio
Format version : Version 1
Format profile : Layer 3
Codec ID : 55
Codec ID/Hint : MP3
Duration : 2h 26mn
Bit rate mode : Constant
Bit rate : 128 Kbps
Channel(s) : 2 channels
Sampling rate : 48.0 KHz
Resolution : 16 bits
Stream size : 134 MiB (19%)
Alignment : Aligned on interleaves
Interleave, duration : 80 ms (2.00 video frames)
Interleave, preload duration : 504 ms
Writing library : LAME3.98r
Encoding settings : -m j -V 4 -q 2 -lowpass 17 -b 128
Language : English

Starring
Brad Pitt
Christoph Waltz
Michael Fassbender
Eli Roth
Daniel Brühl
Diane Kruger
Til Schweiger
Mélanie Laurent

In 1941, SS Colonel Hans Landa (Christoph Waltz) arrives at a dairy farm in France to interrogate Perrier Lapadite (Denis Menochet) about rumors that he is hiding the Jewish Dreyfus family. Landa persuades the farmer to confess to hiding the family underneath his floor. Landa then orders the SS soldiers into the house to shoot the floorboards where they are hiding. The entire family is killed, except the teenage Shosanna (Mélanie Laurent), whom Landa allows to escape.
 
http://www.imdb.com/title/tt0361748/

screens
 
http://img153.imageshack.us/img153/8499/inglourbastdivxviceavis.jpg 
http://img638.imageshack.us/img638/8499/inglourbastdivxviceavis.jpg 
http://img715.imageshack.us/img715/8499/inglourbastdivxviceavis.jpg 
http://img146.imageshack.us/img146/8499/inglourbastdivxviceavis.jpg